<svg xmlns="http://www.w3.org/2000/svg" version="1.1" xmlns:xlink="http://www.w3.org/1999/xlink" width="1000" height="1000"><metadata><rdf:RDF xmlns:rdf="http://www.w3.org/1999/02/22-rdf-syntax-ns#" xmlns:dc="http://purl.org/dc/elements/1.1/"><rdf:Description><dc:creator>RealFaviconGenerator</dc:creator><dc:source>https://realfavicongenerator.net</dc:source></rdf:Description></rdf:RDF></metadata><g clip-path="url(#SvgjsClipPath1017)"><rect width="1000" height="1000" fill="#fefae0"></rect><g transform="matrix(0.875,0,0,0.875,150,150)"><svg xmlns="http://www.w3.org/2000/svg" version="1.2" viewBox="0 0 800 800" width="800" height="800"><style>
		.s0 { fill: none;stroke: #141414;stroke-miterlimit:10;stroke-width: 12 } 
	</style><g id="Layer 1">
		<path id="Vorm 1" fill-rule="evenodd" class="s0" d="m399.54 523.14c-214.87 0-388.54-55.19-388.54-123.48 0-68.28 173.68-123.48 388.54-123.48 214.85 0 388.53 55.2 388.53 123.48 0 68.29-173.68 123.48-388.53 123.48z"></path>
		<path id="Vorm 1 copy" fill-rule="evenodd" class="s0" d="m337.47 506.41c-185.75-108-308.14-243.02-273.82-302.05 34.33-59.03 212.21-19.45 397.95 88.55 185.75 108 308.14 243.02 273.82 302.05-34.33 59.03-212.21 19.45-397.95-88.55z"></path>
	</g></svg></g></g><defs><clipPath id="SvgjsClipPath1017"><rect width="1000" height="1000" x="0" y="0" rx="350" ry="350"></rect></clipPath></defs></svg>